<?xml version="1.0" encoding="UTF-8" standalone="no"?>
<!DOCTYPE svg PUBLIC "-//W3C//DTD SVG 1.1//EN"
 "http://www.w3.org/Graphics/SVG/1.1/DTD/svg11.dtd">
<!-- Generated by graphviz version 2.47.0 (20210316.0004)
 -->
<!-- Title: dependencies Pages: 1 -->
<svg width="2184pt" height="284pt"
 viewBox="0.00 0.00 2184.00 284.00" xmlns="http://www.w3.org/2000/svg" xmlns:xlink="http://www.w3.org/1999/xlink">
<g id="graph0" class="graph" transform="scale(1 1) rotate(0) translate(4 280)">
<title>dependencies</title>
<polygon fill="white" stroke="transparent" points="-4,4 -4,-280 2180,-280 2180,4 -4,4"/>
<text text-anchor="start" x="1067.01" y="-42.4" font-family="Times-12" font-weight="bold" font-size="14.00">Legend</text>
<polygon fill="#ffffb3" stroke="transparent" points="854,-10 854,-30 874,-30 874,-10 854,-10"/>
<text text-anchor="start" x="877.63" y="-15.4" font-family="Times-12" font-size="14.00"> &#160;Declarations</text>
<polygon fill="#8dd3c7" stroke="transparent" points="967,-10 967,-30 987,-30 987,-10 967,-10"/>
<text text-anchor="start" x="990.73" y="-15.4" font-family="Times-12" font-size="14.00"> &#160;Module</text>
<polygon fill="#80b1d3" stroke="transparent" points="1053,-10 1053,-30 1073,-30 1073,-10 1053,-10"/>
<text text-anchor="start" x="1076.78" y="-15.4" font-family="Times-12" font-size="14.00"> &#160;Bootstrap</text>
<polygon fill="#fdb462" stroke="transparent" points="1150,-10 1150,-30 1170,-30 1170,-10 1150,-10"/>
<text text-anchor="start" x="1173.67" y="-15.4" font-family="Times-12" font-size="14.00"> &#160;Providers</text>
<polygon fill="#fb8072" stroke="transparent" points="1246,-10 1246,-30 1266,-30 1266,-10 1246,-10"/>
<text text-anchor="start" x="1269.73" y="-15.4" font-family="Times-12" font-size="14.00"> &#160;Exports</text>
<g id="clust1" class="cluster">
<title>cluster_AppModule</title>
<polygon fill="none" stroke="black" stroke-dasharray="1,5" points="8,-70 8,-268 2168,-268 2168,-70 8,-70"/>
</g>
<g id="clust16" class="cluster">
<title>cluster_AppModule_imports</title>
<polygon fill="none" stroke="black" points="1899,-78 1899,-130 2160,-130 2160,-78 1899,-78"/>
</g>
<g id="clust18" class="cluster">
<title>cluster_AppModule_bootstrap</title>
<polygon fill="none" stroke="black" points="1081,-208 1081,-260 1205,-260 1205,-208 1081,-208"/>
</g>
<g id="clust2" class="cluster">
<title>cluster_AppModule_declarations</title>
<polygon fill="none" stroke="black" points="16,-78 16,-130 1891,-130 1891,-78 16,-78"/>
</g>
<!-- AcercaComponent -->
<g id="node1" class="node">
<title>AcercaComponent</title>
<polygon fill="#ffffb3" stroke="black" points="1883.46,-122 1762.54,-122 1762.54,-86 1883.46,-86 1883.46,-122"/>
<text text-anchor="middle" x="1823" y="-99.8" font-family="Times,serif" font-size="14.00">AcercaComponent</text>
</g>
<!-- AppModule -->
<g id="node14" class="node">
<title>AppModule</title>
<polygon fill="#8dd3c7" stroke="black" points="1184.66,-187 1181.66,-191 1160.66,-191 1157.66,-187 1101.34,-187 1101.34,-151 1184.66,-151 1184.66,-187"/>
<text text-anchor="middle" x="1143" y="-164.8" font-family="Times,serif" font-size="14.00">AppModule</text>
</g>
<!-- AcercaComponent&#45;&gt;AppModule -->
<g id="edge1" class="edge">
<title>AcercaComponent&#45;&gt;AppModule</title>
<path fill="none" stroke="black" d="M1823,-122.03C1823,-142.77 1823,-174 1823,-174 1823,-174 1194.77,-174 1194.77,-174"/>
<polygon fill="black" stroke="black" points="1194.77,-170.5 1184.77,-174 1194.77,-177.5 1194.77,-170.5"/>
</g>
<!-- AdminComponent -->
<g id="node2" class="node">
<title>AdminComponent</title>
<polygon fill="#ffffb3" stroke="black" points="1744.22,-122 1623.78,-122 1623.78,-86 1744.22,-86 1744.22,-122"/>
<text text-anchor="middle" x="1684" y="-99.8" font-family="Times,serif" font-size="14.00">AdminComponent</text>
</g>
<!-- AdminComponent&#45;&gt;AppModule -->
<g id="edge2" class="edge">
<title>AdminComponent&#45;&gt;AppModule</title>
<path fill="none" stroke="black" d="M1684,-122.11C1684,-141.34 1684,-169 1684,-169 1684,-169 1195,-169 1195,-169"/>
<polygon fill="black" stroke="black" points="1195,-165.5 1185,-169 1195,-172.5 1195,-165.5"/>
</g>
<!-- AppComponent -->
<g id="node3" class="node">
<title>AppComponent</title>
<polygon fill="#ffffb3" stroke="black" points="1605.94,-122 1500.06,-122 1500.06,-86 1605.94,-86 1605.94,-122"/>
<text text-anchor="middle" x="1553" y="-99.8" font-family="Times,serif" font-size="14.00">AppComponent</text>
</g>
<!-- AppComponent&#45;&gt;AppModule -->
<g id="edge3" class="edge">
<title>AppComponent&#45;&gt;AppModule</title>
<path fill="none" stroke="black" d="M1553,-122.3C1553,-140.27 1553,-165 1553,-165 1553,-165 1194.95,-165 1194.95,-165"/>
<polygon fill="black" stroke="black" points="1194.95,-161.5 1184.95,-165 1194.95,-168.5 1194.95,-161.5"/>
</g>
<!-- CartComponent -->
<g id="node4" class="node">
<title>CartComponent</title>
<polygon fill="#ffffb3" stroke="black" points="1482.94,-122 1377.06,-122 1377.06,-86 1482.94,-86 1482.94,-122"/>
<text text-anchor="middle" x="1430" y="-99.8" font-family="Times,serif" font-size="14.00">CartComponent</text>
</g>
<!-- CartComponent&#45;&gt;AppModule -->
<g id="edge4" class="edge">
<title>CartComponent&#45;&gt;AppModule</title>
<path fill="none" stroke="black" d="M1430,-122.03C1430,-138.4 1430,-160 1430,-160 1430,-160 1194.73,-160 1194.73,-160"/>
<polygon fill="black" stroke="black" points="1194.73,-156.5 1184.73,-160 1194.73,-163.5 1194.73,-156.5"/>
</g>
<!-- CatalogoComponent -->
<g id="node5" class="node">
<title>CatalogoComponent</title>
<polygon fill="#ffffb3" stroke="black" points="1358.88,-122 1227.12,-122 1227.12,-86 1358.88,-86 1358.88,-122"/>
<text text-anchor="middle" x="1293" y="-99.8" font-family="Times,serif" font-size="14.00">CatalogoComponent</text>
</g>
<!-- CatalogoComponent&#45;&gt;AppModule -->
<g id="edge5" class="edge">
<title>CatalogoComponent&#45;&gt;AppModule</title>
<path fill="none" stroke="black" d="M1293,-122.19C1293,-137.18 1293,-156 1293,-156 1293,-156 1194.78,-156 1194.78,-156"/>
<polygon fill="black" stroke="black" points="1194.78,-152.5 1184.78,-156 1194.78,-159.5 1194.78,-152.5"/>
</g>
<!-- ContactoComponent -->
<g id="node6" class="node">
<title>ContactoComponent</title>
<polygon fill="#ffffb3" stroke="black" points="1208.88,-122 1077.12,-122 1077.12,-86 1208.88,-86 1208.88,-122"/>
<text text-anchor="middle" x="1143" y="-99.8" font-family="Times,serif" font-size="14.00">ContactoComponent</text>
</g>
<!-- ContactoComponent&#45;&gt;AppModule -->
<g id="edge6" class="edge">
<title>ContactoComponent&#45;&gt;AppModule</title>
<path fill="none" stroke="black" d="M1143,-122.11C1143,-122.11 1143,-140.99 1143,-140.99"/>
<polygon fill="black" stroke="black" points="1139.5,-140.99 1143,-150.99 1146.5,-140.99 1139.5,-140.99"/>
</g>
<!-- CreateUserComponent -->
<g id="node7" class="node">
<title>CreateUserComponent</title>
<polygon fill="#ffffb3" stroke="black" points="1059.29,-122 914.71,-122 914.71,-86 1059.29,-86 1059.29,-122"/>
<text text-anchor="middle" x="987" y="-99.8" font-family="Times,serif" font-size="14.00">CreateUserComponent</text>
</g>
<!-- CreateUserComponent&#45;&gt;AppModule -->
<g id="edge7" class="edge">
<title>CreateUserComponent&#45;&gt;AppModule</title>
<path fill="none" stroke="black" d="M987,-122.19C987,-137.18 987,-156 987,-156 987,-156 1091.19,-156 1091.19,-156"/>
<polygon fill="black" stroke="black" points="1091.19,-159.5 1101.19,-156 1091.19,-152.5 1091.19,-159.5"/>
</g>
<!-- HomeComponent -->
<g id="node8" class="node">
<title>HomeComponent</title>
<polygon fill="#ffffb3" stroke="black" points="896.55,-122 781.45,-122 781.45,-86 896.55,-86 896.55,-122"/>
<text text-anchor="middle" x="839" y="-99.8" font-family="Times,serif" font-size="14.00">HomeComponent</text>
</g>
<!-- HomeComponent&#45;&gt;AppModule -->
<g id="edge8" class="edge">
<title>HomeComponent&#45;&gt;AppModule</title>
<path fill="none" stroke="black" d="M839,-122.03C839,-138.4 839,-160 839,-160 839,-160 1091.05,-160 1091.05,-160"/>
<polygon fill="black" stroke="black" points="1091.05,-163.5 1101.05,-160 1091.05,-156.5 1091.05,-163.5"/>
</g>
<!-- LoginComponent -->
<g id="node9" class="node">
<title>LoginComponent</title>
<polygon fill="#ffffb3" stroke="black" points="763.28,-122 648.72,-122 648.72,-86 763.28,-86 763.28,-122"/>
<text text-anchor="middle" x="706" y="-99.8" font-family="Times,serif" font-size="14.00">LoginComponent</text>
</g>
<!-- LoginComponent&#45;&gt;AppModule -->
<g id="edge9" class="edge">
<title>LoginComponent&#45;&gt;AppModule</title>
<path fill="none" stroke="black" d="M706,-122.3C706,-140.27 706,-165 706,-165 706,-165 1091.1,-165 1091.1,-165"/>
<polygon fill="black" stroke="black" points="1091.1,-168.5 1101.1,-165 1091.1,-161.5 1091.1,-168.5"/>
</g>
<!-- PerfilComponent -->
<g id="node10" class="node">
<title>PerfilComponent</title>
<polygon fill="#ffffb3" stroke="black" points="630.43,-122 517.57,-122 517.57,-86 630.43,-86 630.43,-122"/>
<text text-anchor="middle" x="574" y="-99.8" font-family="Times,serif" font-size="14.00">PerfilComponent</text>
</g>
<!-- PerfilComponent&#45;&gt;AppModule -->
<g id="edge10" class="edge">
<title>PerfilComponent&#45;&gt;AppModule</title>
<path fill="none" stroke="black" d="M574,-122.11C574,-141.34 574,-169 574,-169 574,-169 1091.16,-169 1091.16,-169"/>
<polygon fill="black" stroke="black" points="1091.16,-172.5 1101.16,-169 1091.16,-165.5 1091.16,-172.5"/>
</g>
<!-- ProductoDetalleComponent -->
<g id="node11" class="node">
<title>ProductoDetalleComponent</title>
<polygon fill="#ffffb3" stroke="black" points="500.3,-122 327.7,-122 327.7,-86 500.3,-86 500.3,-122"/>
<text text-anchor="middle" x="414" y="-99.8" font-family="Times,serif" font-size="14.00">ProductoDetalleComponent</text>
</g>
<!-- ProductoDetalleComponent&#45;&gt;AppModule -->
<g id="edge11" class="edge">
<title>ProductoDetalleComponent&#45;&gt;AppModule</title>
<path fill="none" stroke="black" d="M414,-122.03C414,-142.77 414,-174 414,-174 414,-174 1091.19,-174 1091.19,-174"/>
<polygon fill="black" stroke="black" points="1091.19,-177.5 1101.19,-174 1091.19,-170.5 1091.19,-177.5"/>
</g>
<!-- RecuperarComponent -->
<g id="node12" class="node">
<title>RecuperarComponent</title>
<polygon fill="#ffffb3" stroke="black" points="309.35,-122 170.65,-122 170.65,-86 309.35,-86 309.35,-122"/>
<text text-anchor="middle" x="240" y="-99.8" font-family="Times,serif" font-size="14.00">RecuperarComponent</text>
</g>
<!-- RecuperarComponent&#45;&gt;AppModule -->
<g id="edge12" class="edge">
<title>RecuperarComponent&#45;&gt;AppModule</title>
<path fill="none" stroke="black" d="M240,-122.29C240,-144.21 240,-178 240,-178 240,-178 1091.26,-178 1091.26,-178"/>
<polygon fill="black" stroke="black" points="1091.26,-181.5 1101.26,-178 1091.26,-174.5 1091.26,-181.5"/>
</g>
<!-- RegistroComponent -->
<g id="node13" class="node">
<title>RegistroComponent</title>
<polygon fill="#ffffb3" stroke="black" points="152.27,-122 23.73,-122 23.73,-86 152.27,-86 152.27,-122"/>
<text text-anchor="middle" x="88" y="-99.8" font-family="Times,serif" font-size="14.00">RegistroComponent</text>
</g>
<!-- RegistroComponent&#45;&gt;AppModule -->
<g id="edge13" class="edge">
<title>RegistroComponent&#45;&gt;AppModule</title>
<path fill="none" stroke="black" d="M88,-122.32C88,-145.66 88,-183 88,-183 88,-183 1091.32,-183 1091.32,-183"/>
<polygon fill="black" stroke="black" points="1091.32,-186.5 1101.32,-183 1091.32,-179.5 1091.32,-186.5"/>
</g>
<!-- AppComponent  -->
<g id="node17" class="node">
<title>AppComponent </title>
<polygon fill="#80b1d3" stroke="black" points="1197.44,-252 1088.56,-252 1088.56,-216 1197.44,-216 1197.44,-252"/>
<text text-anchor="middle" x="1143" y="-229.8" font-family="Times,serif" font-size="14.00">AppComponent </text>
</g>
<!-- AppModule&#45;&gt;AppComponent  -->
<g id="edge16" class="edge">
<title>AppModule&#45;&gt;AppComponent </title>
<path fill="none" stroke="black" stroke-dasharray="1,5" d="M1143,-187.11C1143,-187.11 1143,-205.99 1143,-205.99"/>
<polygon fill="black" stroke="black" points="1139.5,-205.99 1143,-215.99 1146.5,-205.99 1139.5,-205.99"/>
</g>
<!-- AppRoutingModule -->
<g id="node15" class="node">
<title>AppRoutingModule</title>
<polygon fill="#8dd3c7" stroke="black" points="2152.27,-122 2149.27,-126 2128.27,-126 2125.27,-122 2023.73,-122 2023.73,-86 2152.27,-86 2152.27,-122"/>
<text text-anchor="middle" x="2088" y="-99.8" font-family="Times,serif" font-size="14.00">AppRoutingModule</text>
</g>
<!-- AppRoutingModule&#45;&gt;AppModule -->
<g id="edge14" class="edge">
<title>AppRoutingModule&#45;&gt;AppModule</title>
<path fill="none" stroke="black" d="M2088,-122.32C2088,-145.66 2088,-183 2088,-183 2088,-183 1194.82,-183 1194.82,-183"/>
<polygon fill="black" stroke="black" points="1194.82,-179.5 1184.82,-183 1194.82,-186.5 1194.82,-179.5"/>
</g>
<!-- SharedModule -->
<g id="node16" class="node">
<title>SharedModule</title>
<polygon fill="#8dd3c7" stroke="black" points="2005.42,-122 2002.42,-126 1981.42,-126 1978.42,-122 1906.58,-122 1906.58,-86 2005.42,-86 2005.42,-122"/>
<text text-anchor="middle" x="1956" y="-99.8" font-family="Times,serif" font-size="14.00">SharedModule</text>
</g>
<!-- SharedModule&#45;&gt;AppModule -->
<g id="edge15" class="edge">
<title>SharedModule&#45;&gt;AppModule</title>
<path fill="none" stroke="black" d="M1956,-122.29C1956,-144.21 1956,-178 1956,-178 1956,-178 1194.72,-178 1194.72,-178"/>
<polygon fill="black" stroke="black" points="1194.72,-174.5 1184.72,-178 1194.72,-181.5 1194.72,-174.5"/>
</g>
</g>
</svg>
