<?xml version="1.0" encoding="UTF-8" standalone="no"?>
<!DOCTYPE svg PUBLIC "-//W3C//DTD SVG 1.1//EN"
 "http://www.w3.org/Graphics/SVG/1.1/DTD/svg11.dtd">
<!-- Generated by graphviz version 2.47.0 (20210316.0004)
 -->
<!-- Title: dependencies Pages: 1 -->
<svg width="1977pt" height="284pt"
 viewBox="0.00 0.00 1977.00 284.00" xmlns="http://www.w3.org/2000/svg" xmlns:xlink="http://www.w3.org/1999/xlink">
<g id="graph0" class="graph" transform="scale(1 1) rotate(0) translate(4 280)">
<title>dependencies</title>
<polygon fill="white" stroke="transparent" points="-4,4 -4,-280 1973,-280 1973,4 -4,4"/>
<text text-anchor="start" x="963.51" y="-42.4" font-family="Times-12" font-weight="bold" font-size="14.00">Legend</text>
<polygon fill="#ffffb3" stroke="transparent" points="750.5,-10 750.5,-30 770.5,-30 770.5,-10 750.5,-10"/>
<text text-anchor="start" x="774.13" y="-15.4" font-family="Times-12" font-size="14.00"> &#160;Declarations</text>
<polygon fill="#8dd3c7" stroke="transparent" points="863.5,-10 863.5,-30 883.5,-30 883.5,-10 863.5,-10"/>
<text text-anchor="start" x="887.23" y="-15.4" font-family="Times-12" font-size="14.00"> &#160;Module</text>
<polygon fill="#80b1d3" stroke="transparent" points="949.5,-10 949.5,-30 969.5,-30 969.5,-10 949.5,-10"/>
<text text-anchor="start" x="973.28" y="-15.4" font-family="Times-12" font-size="14.00"> &#160;Bootstrap</text>
<polygon fill="#fdb462" stroke="transparent" points="1046.5,-10 1046.5,-30 1066.5,-30 1066.5,-10 1046.5,-10"/>
<text text-anchor="start" x="1070.17" y="-15.4" font-family="Times-12" font-size="14.00"> &#160;Providers</text>
<polygon fill="#fb8072" stroke="transparent" points="1142.5,-10 1142.5,-30 1162.5,-30 1162.5,-10 1142.5,-10"/>
<text text-anchor="start" x="1166.23" y="-15.4" font-family="Times-12" font-size="14.00"> &#160;Exports</text>
<g id="clust1" class="cluster">
<title>cluster_AppModule</title>
<polygon fill="none" stroke="black" stroke-dasharray="1,5" points="8,-70 8,-268 1961,-268 1961,-70 8,-70"/>
</g>
<g id="clust14" class="cluster">
<title>cluster_AppModule_imports</title>
<polygon fill="none" stroke="black" points="1692,-78 1692,-130 1953,-130 1953,-78 1692,-78"/>
</g>
<g id="clust16" class="cluster">
<title>cluster_AppModule_bootstrap</title>
<polygon fill="none" stroke="black" points="1007,-208 1007,-260 1131,-260 1131,-208 1007,-208"/>
</g>
<g id="clust2" class="cluster">
<title>cluster_AppModule_declarations</title>
<polygon fill="none" stroke="black" points="16,-78 16,-130 1684,-130 1684,-78 16,-78"/>
</g>
<!-- AcercaComponent -->
<g id="node1" class="node">
<title>AcercaComponent</title>
<polygon fill="#ffffb3" stroke="black" points="1676.46,-122 1555.54,-122 1555.54,-86 1676.46,-86 1676.46,-122"/>
<text text-anchor="middle" x="1616" y="-99.8" font-family="Times,serif" font-size="14.00">AcercaComponent</text>
</g>
<!-- AppModule -->
<g id="node12" class="node">
<title>AppModule</title>
<polygon fill="#8dd3c7" stroke="black" points="1110.66,-187 1107.66,-191 1086.66,-191 1083.66,-187 1027.34,-187 1027.34,-151 1110.66,-151 1110.66,-187"/>
<text text-anchor="middle" x="1069" y="-164.8" font-family="Times,serif" font-size="14.00">AppModule</text>
</g>
<!-- AcercaComponent&#45;&gt;AppModule -->
<g id="edge1" class="edge">
<title>AcercaComponent&#45;&gt;AppModule</title>
<path fill="none" stroke="black" d="M1616,-122.22C1616,-142.37 1616,-172 1616,-172 1616,-172 1121.01,-172 1121.01,-172"/>
<polygon fill="black" stroke="black" points="1121.01,-168.5 1111.01,-172 1121.01,-175.5 1121.01,-168.5"/>
</g>
<!-- AppComponent -->
<g id="node2" class="node">
<title>AppComponent</title>
<polygon fill="#ffffb3" stroke="black" points="1537.94,-122 1432.06,-122 1432.06,-86 1537.94,-86 1537.94,-122"/>
<text text-anchor="middle" x="1485" y="-99.8" font-family="Times,serif" font-size="14.00">AppComponent</text>
</g>
<!-- AppComponent&#45;&gt;AppModule -->
<g id="edge2" class="edge">
<title>AppComponent&#45;&gt;AppModule</title>
<path fill="none" stroke="black" d="M1485,-122.22C1485,-140.83 1485,-167 1485,-167 1485,-167 1120.79,-167 1120.79,-167"/>
<polygon fill="black" stroke="black" points="1120.79,-163.5 1110.79,-167 1120.79,-170.5 1120.79,-163.5"/>
</g>
<!-- CartComponent -->
<g id="node3" class="node">
<title>CartComponent</title>
<polygon fill="#ffffb3" stroke="black" points="1414.94,-122 1309.06,-122 1309.06,-86 1414.94,-86 1414.94,-122"/>
<text text-anchor="middle" x="1362" y="-99.8" font-family="Times,serif" font-size="14.00">CartComponent</text>
</g>
<!-- CartComponent&#45;&gt;AppModule -->
<g id="edge3" class="edge">
<title>CartComponent&#45;&gt;AppModule</title>
<path fill="none" stroke="black" d="M1362,-122.03C1362,-139.06 1362,-162 1362,-162 1362,-162 1120.67,-162 1120.67,-162"/>
<polygon fill="black" stroke="black" points="1120.67,-158.5 1110.67,-162 1120.67,-165.5 1120.67,-158.5"/>
</g>
<!-- ContactoComponent -->
<g id="node4" class="node">
<title>ContactoComponent</title>
<polygon fill="#ffffb3" stroke="black" points="1290.88,-122 1159.12,-122 1159.12,-86 1290.88,-86 1290.88,-122"/>
<text text-anchor="middle" x="1225" y="-99.8" font-family="Times,serif" font-size="14.00">ContactoComponent</text>
</g>
<!-- ContactoComponent&#45;&gt;AppModule -->
<g id="edge4" class="edge">
<title>ContactoComponent&#45;&gt;AppModule</title>
<path fill="none" stroke="black" d="M1225,-122.24C1225,-137.57 1225,-157 1225,-157 1225,-157 1120.81,-157 1120.81,-157"/>
<polygon fill="black" stroke="black" points="1120.81,-153.5 1110.81,-157 1120.81,-160.5 1120.81,-153.5"/>
</g>
<!-- CreateUserComponent -->
<g id="node5" class="node">
<title>CreateUserComponent</title>
<polygon fill="#ffffb3" stroke="black" points="1141.29,-122 996.71,-122 996.71,-86 1141.29,-86 1141.29,-122"/>
<text text-anchor="middle" x="1069" y="-99.8" font-family="Times,serif" font-size="14.00">CreateUserComponent</text>
</g>
<!-- CreateUserComponent&#45;&gt;AppModule -->
<g id="edge5" class="edge">
<title>CreateUserComponent&#45;&gt;AppModule</title>
<path fill="none" stroke="black" d="M1069,-122.11C1069,-122.11 1069,-140.99 1069,-140.99"/>
<polygon fill="black" stroke="black" points="1065.5,-140.99 1069,-150.99 1072.5,-140.99 1065.5,-140.99"/>
</g>
<!-- HomeComponent -->
<g id="node6" class="node">
<title>HomeComponent</title>
<polygon fill="#ffffb3" stroke="black" points="978.55,-122 863.45,-122 863.45,-86 978.55,-86 978.55,-122"/>
<text text-anchor="middle" x="921" y="-99.8" font-family="Times,serif" font-size="14.00">HomeComponent</text>
</g>
<!-- HomeComponent&#45;&gt;AppModule -->
<g id="edge6" class="edge">
<title>HomeComponent&#45;&gt;AppModule</title>
<path fill="none" stroke="black" d="M921,-122.24C921,-137.57 921,-157 921,-157 921,-157 1016.99,-157 1016.99,-157"/>
<polygon fill="black" stroke="black" points="1016.99,-160.5 1026.99,-157 1016.98,-153.5 1016.99,-160.5"/>
</g>
<!-- ListaEncargosComponent -->
<g id="node7" class="node">
<title>ListaEncargosComponent</title>
<polygon fill="#ffffb3" stroke="black" points="845.91,-122 684.09,-122 684.09,-86 845.91,-86 845.91,-122"/>
<text text-anchor="middle" x="765" y="-99.8" font-family="Times,serif" font-size="14.00">ListaEncargosComponent</text>
</g>
<!-- ListaEncargosComponent&#45;&gt;AppModule -->
<g id="edge7" class="edge">
<title>ListaEncargosComponent&#45;&gt;AppModule</title>
<path fill="none" stroke="black" d="M765,-122.03C765,-139.06 765,-162 765,-162 765,-162 1017.05,-162 1017.05,-162"/>
<polygon fill="black" stroke="black" points="1017.05,-165.5 1027.05,-162 1017.05,-158.5 1017.05,-165.5"/>
</g>
<!-- ListaProductosComponent -->
<g id="node8" class="node">
<title>ListaProductosComponent</title>
<polygon fill="#ffffb3" stroke="black" points="666.82,-122 501.18,-122 501.18,-86 666.82,-86 666.82,-122"/>
<text text-anchor="middle" x="584" y="-99.8" font-family="Times,serif" font-size="14.00">ListaProductosComponent</text>
</g>
<!-- ListaProductosComponent&#45;&gt;AppModule -->
<g id="edge8" class="edge">
<title>ListaProductosComponent&#45;&gt;AppModule</title>
<path fill="none" stroke="black" d="M584,-122.22C584,-140.83 584,-167 584,-167 584,-167 1017.23,-167 1017.23,-167"/>
<polygon fill="black" stroke="black" points="1017.23,-170.5 1027.23,-167 1017.23,-163.5 1017.23,-170.5"/>
</g>
<!-- PerfilComponent -->
<g id="node9" class="node">
<title>PerfilComponent</title>
<polygon fill="#ffffb3" stroke="black" points="483.43,-122 370.57,-122 370.57,-86 483.43,-86 483.43,-122"/>
<text text-anchor="middle" x="427" y="-99.8" font-family="Times,serif" font-size="14.00">PerfilComponent</text>
</g>
<!-- PerfilComponent&#45;&gt;AppModule -->
<g id="edge9" class="edge">
<title>PerfilComponent&#45;&gt;AppModule</title>
<path fill="none" stroke="black" d="M427,-122.22C427,-142.37 427,-172 427,-172 427,-172 1016.88,-172 1016.88,-172"/>
<polygon fill="black" stroke="black" points="1016.88,-175.5 1026.88,-172 1016.88,-168.5 1016.88,-175.5"/>
</g>
<!-- ProductoDetalleComponent -->
<g id="node10" class="node">
<title>ProductoDetalleComponent</title>
<polygon fill="#ffffb3" stroke="black" points="353.3,-122 180.7,-122 180.7,-86 353.3,-86 353.3,-122"/>
<text text-anchor="middle" x="267" y="-99.8" font-family="Times,serif" font-size="14.00">ProductoDetalleComponent</text>
</g>
<!-- ProductoDetalleComponent&#45;&gt;AppModule -->
<g id="edge10" class="edge">
<title>ProductoDetalleComponent&#45;&gt;AppModule</title>
<path fill="none" stroke="black" d="M267,-122.04C267,-143.66 267,-177 267,-177 267,-177 1017.29,-177 1017.29,-177"/>
<polygon fill="black" stroke="black" points="1017.29,-180.5 1027.29,-177 1017.29,-173.5 1017.29,-180.5"/>
</g>
<!-- RecuperarComponent -->
<g id="node11" class="node">
<title>RecuperarComponent</title>
<polygon fill="#ffffb3" stroke="black" points="162.35,-122 23.65,-122 23.65,-86 162.35,-86 162.35,-122"/>
<text text-anchor="middle" x="93" y="-99.8" font-family="Times,serif" font-size="14.00">RecuperarComponent</text>
</g>
<!-- RecuperarComponent&#45;&gt;AppModule -->
<g id="edge11" class="edge">
<title>RecuperarComponent&#45;&gt;AppModule</title>
<path fill="none" stroke="black" d="M93,-122.09C93,-145.13 93,-182 93,-182 93,-182 1017.06,-182 1017.06,-182"/>
<polygon fill="black" stroke="black" points="1017.06,-185.5 1027.06,-182 1017.06,-178.5 1017.06,-185.5"/>
</g>
<!-- AppComponent  -->
<g id="node15" class="node">
<title>AppComponent </title>
<polygon fill="#80b1d3" stroke="black" points="1123.44,-252 1014.56,-252 1014.56,-216 1123.44,-216 1123.44,-252"/>
<text text-anchor="middle" x="1069" y="-229.8" font-family="Times,serif" font-size="14.00">AppComponent </text>
</g>
<!-- AppModule&#45;&gt;AppComponent  -->
<g id="edge14" class="edge">
<title>AppModule&#45;&gt;AppComponent </title>
<path fill="none" stroke="black" stroke-dasharray="1,5" d="M1069,-187.11C1069,-187.11 1069,-205.99 1069,-205.99"/>
<polygon fill="black" stroke="black" points="1065.5,-205.99 1069,-215.99 1072.5,-205.99 1065.5,-205.99"/>
</g>
<!-- AppRoutingModule -->
<g id="node13" class="node">
<title>AppRoutingModule</title>
<polygon fill="#8dd3c7" stroke="black" points="1945.27,-122 1942.27,-126 1921.27,-126 1918.27,-122 1816.73,-122 1816.73,-86 1945.27,-86 1945.27,-122"/>
<text text-anchor="middle" x="1881" y="-99.8" font-family="Times,serif" font-size="14.00">AppRoutingModule</text>
</g>
<!-- AppRoutingModule&#45;&gt;AppModule -->
<g id="edge12" class="edge">
<title>AppRoutingModule&#45;&gt;AppModule</title>
<path fill="none" stroke="black" d="M1881,-122.09C1881,-145.13 1881,-182 1881,-182 1881,-182 1120.66,-182 1120.66,-182"/>
<polygon fill="black" stroke="black" points="1120.66,-178.5 1110.66,-182 1120.66,-185.5 1120.66,-178.5"/>
</g>
<!-- SharedModule -->
<g id="node14" class="node">
<title>SharedModule</title>
<polygon fill="#8dd3c7" stroke="black" points="1798.42,-122 1795.42,-126 1774.42,-126 1771.42,-122 1699.58,-122 1699.58,-86 1798.42,-86 1798.42,-122"/>
<text text-anchor="middle" x="1749" y="-99.8" font-family="Times,serif" font-size="14.00">SharedModule</text>
</g>
<!-- SharedModule&#45;&gt;AppModule -->
<g id="edge13" class="edge">
<title>SharedModule&#45;&gt;AppModule</title>
<path fill="none" stroke="black" d="M1749,-122.04C1749,-143.66 1749,-177 1749,-177 1749,-177 1120.77,-177 1120.77,-177"/>
<polygon fill="black" stroke="black" points="1120.77,-173.5 1110.77,-177 1120.77,-180.5 1120.77,-173.5"/>
</g>
</g>
</svg>
