<?xml version="1.0" encoding="UTF-8" standalone="no"?>
<!DOCTYPE svg PUBLIC "-//W3C//DTD SVG 1.1//EN"
 "http://www.w3.org/Graphics/SVG/1.1/DTD/svg11.dtd">
<!-- Generated by graphviz version 2.47.0 (20210316.0004)
 -->
<!-- Title: dependencies Pages: 1 -->
<svg width="2771pt" height="290pt"
 viewBox="0.00 0.00 2771.00 290.00" xmlns="http://www.w3.org/2000/svg" xmlns:xlink="http://www.w3.org/1999/xlink">
<g id="graph0" class="graph" transform="scale(1 1) rotate(0) translate(4 286)">
<title>dependencies</title>
<polygon fill="white" stroke="transparent" points="-4,4 -4,-286 2767,-286 2767,4 -4,4"/>
<text text-anchor="start" x="1360.51" y="-42.4" font-family="Times-12" font-weight="bold" font-size="14.00">Legend</text>
<polygon fill="#ffffb3" stroke="transparent" points="1147.5,-10 1147.5,-30 1167.5,-30 1167.5,-10 1147.5,-10"/>
<text text-anchor="start" x="1171.13" y="-15.4" font-family="Times-12" font-size="14.00"> &#160;Declarations</text>
<polygon fill="#8dd3c7" stroke="transparent" points="1260.5,-10 1260.5,-30 1280.5,-30 1280.5,-10 1260.5,-10"/>
<text text-anchor="start" x="1284.23" y="-15.4" font-family="Times-12" font-size="14.00"> &#160;Module</text>
<polygon fill="#80b1d3" stroke="transparent" points="1346.5,-10 1346.5,-30 1366.5,-30 1366.5,-10 1346.5,-10"/>
<text text-anchor="start" x="1370.28" y="-15.4" font-family="Times-12" font-size="14.00"> &#160;Bootstrap</text>
<polygon fill="#fdb462" stroke="transparent" points="1443.5,-10 1443.5,-30 1463.5,-30 1463.5,-10 1443.5,-10"/>
<text text-anchor="start" x="1467.17" y="-15.4" font-family="Times-12" font-size="14.00"> &#160;Providers</text>
<polygon fill="#fb8072" stroke="transparent" points="1539.5,-10 1539.5,-30 1559.5,-30 1559.5,-10 1539.5,-10"/>
<text text-anchor="start" x="1563.23" y="-15.4" font-family="Times-12" font-size="14.00"> &#160;Exports</text>
<g id="clust1" class="cluster">
<title>cluster_AppModule</title>
<polygon fill="none" stroke="black" stroke-dasharray="1,5" points="8,-70 8,-274 2168,-274 2168,-70 8,-70"/>
</g>
<g id="clust2" class="cluster">
<title>cluster_AppModule_declarations</title>
<polygon fill="none" stroke="black" points="16,-78 16,-130 1891,-130 1891,-78 16,-78"/>
</g>
<g id="clust16" class="cluster">
<title>cluster_AppModule_imports</title>
<polygon fill="none" stroke="black" points="1899,-78 1899,-130 2160,-130 2160,-78 1899,-78"/>
</g>
<g id="clust18" class="cluster">
<title>cluster_AppModule_bootstrap</title>
<polygon fill="none" stroke="black" points="1081,-214 1081,-266 1205,-266 1205,-214 1081,-214"/>
</g>
<g id="clust26" class="cluster">
<title>cluster_SharedModule</title>
<polygon fill="none" stroke="black" stroke-dasharray="1,5" points="2176,-138 2176,-206 2755,-206 2755,-138 2176,-138"/>
</g>
<g id="clust27" class="cluster">
<title>cluster_SharedModule_declarations</title>
<polygon fill="none" stroke="black" points="2473,-146 2473,-198 2747,-198 2747,-146 2473,-146"/>
</g>
<g id="clust31" class="cluster">
<title>cluster_SharedModule_exports</title>
<polygon fill="none" stroke="black" points="2184,-146 2184,-198 2465,-198 2465,-146 2184,-146"/>
</g>
<!-- AcercaComponent -->
<g id="node1" class="node">
<title>AcercaComponent</title>
<polygon fill="#ffffb3" stroke="black" points="1883.46,-122 1762.54,-122 1762.54,-86 1883.46,-86 1883.46,-122"/>
<text text-anchor="middle" x="1823" y="-99.8" font-family="Times,serif" font-size="14.00">AcercaComponent</text>
</g>
<!-- AppModule -->
<g id="node14" class="node">
<title>AppModule</title>
<polygon fill="#8dd3c7" stroke="black" points="1184.66,-190 1181.66,-194 1160.66,-194 1157.66,-190 1101.34,-190 1101.34,-154 1184.66,-154 1184.66,-190"/>
<text text-anchor="middle" x="1143" y="-167.8" font-family="Times,serif" font-size="14.00">AppModule</text>
</g>
<!-- AcercaComponent&#45;&gt;AppModule -->
<g id="edge1" class="edge">
<title>AcercaComponent&#45;&gt;AppModule</title>
<path fill="none" stroke="black" d="M1823,-122.29C1823,-144.21 1823,-178 1823,-178 1823,-178 1194.77,-178 1194.77,-178"/>
<polygon fill="black" stroke="black" points="1194.77,-174.5 1184.77,-178 1194.77,-181.5 1194.77,-174.5"/>
</g>
<!-- AdminComponent -->
<g id="node2" class="node">
<title>AdminComponent</title>
<polygon fill="#ffffb3" stroke="black" points="1744.22,-122 1623.78,-122 1623.78,-86 1744.22,-86 1744.22,-122"/>
<text text-anchor="middle" x="1684" y="-99.8" font-family="Times,serif" font-size="14.00">AdminComponent</text>
</g>
<!-- AdminComponent&#45;&gt;AppModule -->
<g id="edge2" class="edge">
<title>AdminComponent&#45;&gt;AppModule</title>
<path fill="none" stroke="black" d="M1684,-122.03C1684,-142.77 1684,-174 1684,-174 1684,-174 1195,-174 1195,-174"/>
<polygon fill="black" stroke="black" points="1195,-170.5 1185,-174 1195,-177.5 1195,-170.5"/>
</g>
<!-- AppComponent -->
<g id="node3" class="node">
<title>AppComponent</title>
<polygon fill="#ffffb3" stroke="black" points="1605.94,-122 1500.06,-122 1500.06,-86 1605.94,-86 1605.94,-122"/>
<text text-anchor="middle" x="1553" y="-99.8" font-family="Times,serif" font-size="14.00">AppComponent</text>
</g>
<!-- AppComponent&#45;&gt;AppModule -->
<g id="edge3" class="edge">
<title>AppComponent&#45;&gt;AppModule</title>
<path fill="none" stroke="black" d="M1553,-122.03C1553,-141.58 1553,-170 1553,-170 1553,-170 1194.95,-170 1194.95,-170"/>
<polygon fill="black" stroke="black" points="1194.95,-166.5 1184.95,-170 1194.95,-173.5 1194.95,-166.5"/>
</g>
<!-- CartComponent -->
<g id="node4" class="node">
<title>CartComponent</title>
<polygon fill="#ffffb3" stroke="black" points="1482.94,-122 1377.06,-122 1377.06,-86 1482.94,-86 1482.94,-122"/>
<text text-anchor="middle" x="1430" y="-99.8" font-family="Times,serif" font-size="14.00">CartComponent</text>
</g>
<!-- CartComponent&#45;&gt;AppModule -->
<g id="edge4" class="edge">
<title>CartComponent&#45;&gt;AppModule</title>
<path fill="none" stroke="black" d="M1430,-122.27C1430,-140.56 1430,-166 1430,-166 1430,-166 1194.73,-166 1194.73,-166"/>
<polygon fill="black" stroke="black" points="1194.73,-162.5 1184.73,-166 1194.73,-169.5 1194.73,-162.5"/>
</g>
<!-- CatalogoComponent -->
<g id="node5" class="node">
<title>CatalogoComponent</title>
<polygon fill="#ffffb3" stroke="black" points="1358.88,-122 1227.12,-122 1227.12,-86 1358.88,-86 1358.88,-122"/>
<text text-anchor="middle" x="1293" y="-99.8" font-family="Times,serif" font-size="14.00">CatalogoComponent</text>
</g>
<!-- CatalogoComponent&#45;&gt;AppModule -->
<g id="edge5" class="edge">
<title>CatalogoComponent&#45;&gt;AppModule</title>
<path fill="none" stroke="black" d="M1293,-122.03C1293,-139.06 1293,-162 1293,-162 1293,-162 1194.78,-162 1194.78,-162"/>
<polygon fill="black" stroke="black" points="1194.78,-158.5 1184.78,-162 1194.78,-165.5 1194.78,-158.5"/>
</g>
<!-- ContactoComponent -->
<g id="node6" class="node">
<title>ContactoComponent</title>
<polygon fill="#ffffb3" stroke="black" points="1208.88,-122 1077.12,-122 1077.12,-86 1208.88,-86 1208.88,-122"/>
<text text-anchor="middle" x="1143" y="-99.8" font-family="Times,serif" font-size="14.00">ContactoComponent</text>
</g>
<!-- ContactoComponent&#45;&gt;AppModule -->
<g id="edge6" class="edge">
<title>ContactoComponent&#45;&gt;AppModule</title>
<path fill="none" stroke="black" d="M1143,-122.22C1143,-122.22 1143,-143.73 1143,-143.73"/>
<polygon fill="black" stroke="black" points="1139.5,-143.73 1143,-153.73 1146.5,-143.73 1139.5,-143.73"/>
</g>
<!-- CreateUserComponent -->
<g id="node7" class="node">
<title>CreateUserComponent</title>
<polygon fill="#ffffb3" stroke="black" points="1059.29,-122 914.71,-122 914.71,-86 1059.29,-86 1059.29,-122"/>
<text text-anchor="middle" x="987" y="-99.8" font-family="Times,serif" font-size="14.00">CreateUserComponent</text>
</g>
<!-- CreateUserComponent&#45;&gt;AppModule -->
<g id="edge7" class="edge">
<title>CreateUserComponent&#45;&gt;AppModule</title>
<path fill="none" stroke="black" d="M987,-122.01C987,-138.05 987,-159 987,-159 987,-159 1091.19,-159 1091.19,-159"/>
<polygon fill="black" stroke="black" points="1091.19,-162.5 1101.19,-159 1091.19,-155.5 1091.19,-162.5"/>
</g>
<!-- HomeComponent -->
<g id="node8" class="node">
<title>HomeComponent</title>
<polygon fill="#ffffb3" stroke="black" points="896.55,-122 781.45,-122 781.45,-86 896.55,-86 896.55,-122"/>
<text text-anchor="middle" x="839" y="-99.8" font-family="Times,serif" font-size="14.00">HomeComponent</text>
</g>
<!-- HomeComponent&#45;&gt;AppModule -->
<g id="edge8" class="edge">
<title>HomeComponent&#45;&gt;AppModule</title>
<path fill="none" stroke="black" d="M839,-122.02C839,-139.37 839,-163 839,-163 839,-163 1091.05,-163 1091.05,-163"/>
<polygon fill="black" stroke="black" points="1091.05,-166.5 1101.05,-163 1091.05,-159.5 1091.05,-166.5"/>
</g>
<!-- LoginComponent -->
<g id="node9" class="node">
<title>LoginComponent</title>
<polygon fill="#ffffb3" stroke="black" points="763.28,-122 648.72,-122 648.72,-86 763.28,-86 763.28,-122"/>
<text text-anchor="middle" x="706" y="-99.8" font-family="Times,serif" font-size="14.00">LoginComponent</text>
</g>
<!-- LoginComponent&#45;&gt;AppModule -->
<g id="edge9" class="edge">
<title>LoginComponent&#45;&gt;AppModule</title>
<path fill="none" stroke="black" d="M706,-122.17C706,-141.09 706,-168 706,-168 706,-168 1091.1,-168 1091.1,-168"/>
<polygon fill="black" stroke="black" points="1091.1,-171.5 1101.1,-168 1091.1,-164.5 1091.1,-171.5"/>
</g>
<!-- PerfilComponent -->
<g id="node10" class="node">
<title>PerfilComponent</title>
<polygon fill="#ffffb3" stroke="black" points="630.43,-122 517.57,-122 517.57,-86 630.43,-86 630.43,-122"/>
<text text-anchor="middle" x="574" y="-99.8" font-family="Times,serif" font-size="14.00">PerfilComponent</text>
</g>
<!-- PerfilComponent&#45;&gt;AppModule -->
<g id="edge10" class="edge">
<title>PerfilComponent&#45;&gt;AppModule</title>
<path fill="none" stroke="black" d="M574,-122.22C574,-142.37 574,-172 574,-172 574,-172 1091.16,-172 1091.16,-172"/>
<polygon fill="black" stroke="black" points="1091.16,-175.5 1101.16,-172 1091.16,-168.5 1091.16,-175.5"/>
</g>
<!-- ProductoDetalleComponent -->
<g id="node11" class="node">
<title>ProductoDetalleComponent</title>
<polygon fill="#ffffb3" stroke="black" points="500.3,-122 327.7,-122 327.7,-86 500.3,-86 500.3,-122"/>
<text text-anchor="middle" x="414" y="-99.8" font-family="Times,serif" font-size="14.00">ProductoDetalleComponent</text>
</g>
<!-- ProductoDetalleComponent&#45;&gt;AppModule -->
<g id="edge11" class="edge">
<title>ProductoDetalleComponent&#45;&gt;AppModule</title>
<path fill="none" stroke="black" d="M414,-122.04C414,-143.66 414,-177 414,-177 414,-177 1091.19,-177 1091.19,-177"/>
<polygon fill="black" stroke="black" points="1091.19,-180.5 1101.19,-177 1091.19,-173.5 1091.19,-180.5"/>
</g>
<!-- RecuperarComponent -->
<g id="node12" class="node">
<title>RecuperarComponent</title>
<polygon fill="#ffffb3" stroke="black" points="309.35,-122 170.65,-122 170.65,-86 309.35,-86 309.35,-122"/>
<text text-anchor="middle" x="240" y="-99.8" font-family="Times,serif" font-size="14.00">RecuperarComponent</text>
</g>
<!-- RecuperarComponent&#45;&gt;AppModule -->
<g id="edge12" class="edge">
<title>RecuperarComponent&#45;&gt;AppModule</title>
<path fill="none" stroke="black" d="M240,-122.25C240,-145.02 240,-181 240,-181 240,-181 1091.26,-181 1091.26,-181"/>
<polygon fill="black" stroke="black" points="1091.26,-184.5 1101.26,-181 1091.26,-177.5 1091.26,-184.5"/>
</g>
<!-- RegistroComponent -->
<g id="node13" class="node">
<title>RegistroComponent</title>
<polygon fill="#ffffb3" stroke="black" points="152.27,-122 23.73,-122 23.73,-86 152.27,-86 152.27,-122"/>
<text text-anchor="middle" x="88" y="-99.8" font-family="Times,serif" font-size="14.00">RegistroComponent</text>
</g>
<!-- RegistroComponent&#45;&gt;AppModule -->
<g id="edge13" class="edge">
<title>RegistroComponent&#45;&gt;AppModule</title>
<path fill="none" stroke="black" d="M88,-122.2C88,-146.36 88,-186 88,-186 88,-186 1091.32,-186 1091.32,-186"/>
<polygon fill="black" stroke="black" points="1091.32,-189.5 1101.32,-186 1091.32,-182.5 1091.32,-189.5"/>
</g>
<!-- AppComponent  -->
<g id="node17" class="node">
<title>AppComponent </title>
<polygon fill="#80b1d3" stroke="black" points="1197.44,-258 1088.56,-258 1088.56,-222 1197.44,-222 1197.44,-258"/>
<text text-anchor="middle" x="1143" y="-235.8" font-family="Times,serif" font-size="14.00">AppComponent </text>
</g>
<!-- AppModule&#45;&gt;AppComponent  -->
<g id="edge16" class="edge">
<title>AppModule&#45;&gt;AppComponent </title>
<path fill="none" stroke="black" stroke-dasharray="1,5" d="M1143,-190.22C1143,-190.22 1143,-211.73 1143,-211.73"/>
<polygon fill="black" stroke="black" points="1139.5,-211.73 1143,-221.73 1146.5,-211.73 1139.5,-211.73"/>
</g>
<!-- AppRoutingModule -->
<g id="node15" class="node">
<title>AppRoutingModule</title>
<polygon fill="#8dd3c7" stroke="black" points="2035.27,-122 2032.27,-126 2011.27,-126 2008.27,-122 1906.73,-122 1906.73,-86 2035.27,-86 2035.27,-122"/>
<text text-anchor="middle" x="1971" y="-99.8" font-family="Times,serif" font-size="14.00">AppRoutingModule</text>
</g>
<!-- AppRoutingModule&#45;&gt;AppModule -->
<g id="edge14" class="edge">
<title>AppRoutingModule&#45;&gt;AppModule</title>
<path fill="none" stroke="black" d="M1971,-122.09C1971,-145.13 1971,-182 1971,-182 1971,-182 1194.91,-182 1194.91,-182"/>
<polygon fill="black" stroke="black" points="1194.91,-178.5 1184.91,-182 1194.91,-185.5 1194.91,-178.5"/>
</g>
<!-- SharedModule -->
<g id="node16" class="node">
<title>SharedModule</title>
<polygon fill="#8dd3c7" stroke="black" points="2152.42,-122 2149.42,-126 2128.42,-126 2125.42,-122 2053.58,-122 2053.58,-86 2152.42,-86 2152.42,-122"/>
<text text-anchor="middle" x="2103" y="-99.8" font-family="Times,serif" font-size="14.00">SharedModule</text>
</g>
<!-- SharedModule&#45;&gt;AppModule -->
<g id="edge15" class="edge">
<title>SharedModule&#45;&gt;AppModule</title>
<path fill="none" stroke="black" d="M2086.6,-122.2C2086.6,-146.36 2086.6,-186 2086.6,-186 2086.6,-186 1194.76,-186 1194.76,-186"/>
<polygon fill="black" stroke="black" points="1194.76,-182.5 1184.76,-186 1194.76,-189.5 1194.76,-182.5"/>
</g>
<!-- FooterComponent  -->
<g id="node20" class="node">
<title>FooterComponent </title>
<polygon fill="#fb8072" stroke="black" points="2456.88,-190 2335.12,-190 2335.12,-154 2456.88,-154 2456.88,-190"/>
<text text-anchor="middle" x="2396" y="-167.8" font-family="Times,serif" font-size="14.00">FooterComponent </text>
</g>
<!-- SharedModule&#45;&gt;FooterComponent  -->
<g id="edge19" class="edge">
<title>SharedModule&#45;&gt;FooterComponent </title>
<path fill="none" stroke="black" stroke-dasharray="5,2" d="M2152.37,-113C2235.87,-113 2396,-113 2396,-113 2396,-113 2396,-143.98 2396,-143.98"/>
<polygon fill="black" stroke="black" points="2392.5,-143.98 2396,-153.98 2399.5,-143.98 2392.5,-143.98"/>
</g>
<!-- HeaderComponent  -->
<g id="node21" class="node">
<title>HeaderComponent </title>
<polygon fill="#fb8072" stroke="black" points="2317.74,-190 2192.26,-190 2192.26,-154 2317.74,-154 2317.74,-190"/>
<text text-anchor="middle" x="2255" y="-167.8" font-family="Times,serif" font-size="14.00">HeaderComponent </text>
</g>
<!-- SharedModule&#45;&gt;HeaderComponent  -->
<g id="edge20" class="edge">
<title>SharedModule&#45;&gt;HeaderComponent </title>
<path fill="none" stroke="black" stroke-dasharray="5,2" d="M2119.4,-122.28C2119.4,-137.95 2119.4,-158 2119.4,-158 2119.4,-158 2182.36,-158 2182.36,-158"/>
<polygon fill="black" stroke="black" points="2182.36,-161.5 2192.36,-158 2182.36,-154.5 2182.36,-161.5"/>
</g>
<!-- FooterComponent -->
<g id="node18" class="node">
<title>FooterComponent</title>
<polygon fill="#ffffb3" stroke="black" points="2738.88,-190 2621.12,-190 2621.12,-154 2738.88,-154 2738.88,-190"/>
<text text-anchor="middle" x="2680" y="-167.8" font-family="Times,serif" font-size="14.00">FooterComponent</text>
</g>
<!-- FooterComponent&#45;&gt;SharedModule -->
<g id="edge17" class="edge">
<title>FooterComponent&#45;&gt;SharedModule</title>
<path fill="none" stroke="black" d="M2680,-153.75C2680,-130.98 2680,-95 2680,-95 2680,-95 2162.44,-95 2162.44,-95"/>
<polygon fill="black" stroke="black" points="2162.44,-91.5 2152.44,-95 2162.44,-98.5 2162.44,-91.5"/>
</g>
<!-- HeaderComponent -->
<g id="node19" class="node">
<title>HeaderComponent</title>
<polygon fill="#ffffb3" stroke="black" points="2602.74,-190 2481.26,-190 2481.26,-154 2602.74,-154 2602.74,-190"/>
<text text-anchor="middle" x="2542" y="-167.8" font-family="Times,serif" font-size="14.00">HeaderComponent</text>
</g>
<!-- HeaderComponent&#45;&gt;SharedModule -->
<g id="edge18" class="edge">
<title>HeaderComponent&#45;&gt;SharedModule</title>
<path fill="none" stroke="black" d="M2542,-153.78C2542,-133.63 2542,-104 2542,-104 2542,-104 2162.51,-104 2162.51,-104"/>
<polygon fill="black" stroke="black" points="2162.51,-100.5 2152.51,-104 2162.51,-107.5 2162.51,-100.5"/>
</g>
</g>
</svg>
