<?xml version="1.0" encoding="UTF-8" standalone="no"?>
<!DOCTYPE svg PUBLIC "-//W3C//DTD SVG 1.1//EN"
 "http://www.w3.org/Graphics/SVG/1.1/DTD/svg11.dtd">
<!-- Generated by graphviz version 2.47.0 (20210316.0004)
 -->
<!-- Title: dependencies Pages: 1 -->
<svg width="3392pt" height="290pt"
 viewBox="0.00 0.00 3392.00 290.00" xmlns="http://www.w3.org/2000/svg" xmlns:xlink="http://www.w3.org/1999/xlink">
<g id="graph0" class="graph" transform="scale(1 1) rotate(0) translate(4 286)">
<title>dependencies</title>
<polygon fill="white" stroke="transparent" points="-4,4 -4,-286 3388,-286 3388,4 -4,4"/>
<text text-anchor="start" x="1671.01" y="-42.4" font-family="Times-12" font-weight="bold" font-size="14.00">Legend</text>
<polygon fill="#ffffb3" stroke="transparent" points="1458,-10 1458,-30 1478,-30 1478,-10 1458,-10"/>
<text text-anchor="start" x="1481.63" y="-15.4" font-family="Times-12" font-size="14.00"> &#160;Declarations</text>
<polygon fill="#8dd3c7" stroke="transparent" points="1571,-10 1571,-30 1591,-30 1591,-10 1571,-10"/>
<text text-anchor="start" x="1594.73" y="-15.4" font-family="Times-12" font-size="14.00"> &#160;Module</text>
<polygon fill="#80b1d3" stroke="transparent" points="1657,-10 1657,-30 1677,-30 1677,-10 1657,-10"/>
<text text-anchor="start" x="1680.78" y="-15.4" font-family="Times-12" font-size="14.00"> &#160;Bootstrap</text>
<polygon fill="#fdb462" stroke="transparent" points="1754,-10 1754,-30 1774,-30 1774,-10 1754,-10"/>
<text text-anchor="start" x="1777.67" y="-15.4" font-family="Times-12" font-size="14.00"> &#160;Providers</text>
<polygon fill="#fb8072" stroke="transparent" points="1850,-10 1850,-30 1870,-30 1870,-10 1850,-10"/>
<text text-anchor="start" x="1873.73" y="-15.4" font-family="Times-12" font-size="14.00"> &#160;Exports</text>
<g id="clust1" class="cluster">
<title>cluster_AdminModule</title>
<polygon fill="none" stroke="black" stroke-dasharray="1,5" points="8,-70 8,-198 160,-198 160,-70 8,-70"/>
</g>
<g id="clust2" class="cluster">
<title>cluster_AdminModule_declarations</title>
<polygon fill="none" stroke="black" points="16,-78 16,-130 152,-130 152,-78 16,-78"/>
</g>
<g id="clust8" class="cluster">
<title>cluster_AppModule</title>
<polygon fill="none" stroke="black" stroke-dasharray="1,5" points="168,-70 168,-274 2121,-274 2121,-70 168,-70"/>
</g>
<g id="clust9" class="cluster">
<title>cluster_AppModule_declarations</title>
<polygon fill="none" stroke="black" points="176,-78 176,-130 1844,-130 1844,-78 176,-78"/>
</g>
<g id="clust21" class="cluster">
<title>cluster_AppModule_imports</title>
<polygon fill="none" stroke="black" points="1852,-78 1852,-130 2113,-130 2113,-78 1852,-78"/>
</g>
<g id="clust23" class="cluster">
<title>cluster_AppModule_bootstrap</title>
<polygon fill="none" stroke="black" points="1245,-214 1245,-266 1369,-266 1369,-214 1245,-214"/>
</g>
<g id="clust31" class="cluster">
<title>cluster_CatalogoModule</title>
<polygon fill="none" stroke="black" stroke-dasharray="1,5" points="2716,-70 2716,-198 2880,-198 2880,-70 2716,-70"/>
</g>
<g id="clust32" class="cluster">
<title>cluster_CatalogoModule_declarations</title>
<polygon fill="none" stroke="black" points="2724,-78 2724,-130 2872,-130 2872,-78 2724,-78"/>
</g>
<g id="clust38" class="cluster">
<title>cluster_EncargosModule</title>
<polygon fill="none" stroke="black" stroke-dasharray="1,5" points="2888,-70 2888,-198 3054,-198 3054,-70 2888,-70"/>
</g>
<g id="clust39" class="cluster">
<title>cluster_EncargosModule_declarations</title>
<polygon fill="none" stroke="black" points="2896,-78 2896,-130 3046,-130 3046,-78 2896,-78"/>
</g>
<g id="clust45" class="cluster">
<title>cluster_LoginModule</title>
<polygon fill="none" stroke="black" stroke-dasharray="1,5" points="3062,-70 3062,-198 3208,-198 3208,-70 3062,-70"/>
</g>
<g id="clust46" class="cluster">
<title>cluster_LoginModule_declarations</title>
<polygon fill="none" stroke="black" points="3070,-78 3070,-130 3200,-130 3200,-78 3070,-78"/>
</g>
<g id="clust52" class="cluster">
<title>cluster_RegistroModule</title>
<polygon fill="none" stroke="black" stroke-dasharray="1,5" points="3216,-70 3216,-198 3376,-198 3376,-70 3216,-70"/>
</g>
<g id="clust53" class="cluster">
<title>cluster_RegistroModule_declarations</title>
<polygon fill="none" stroke="black" points="3224,-78 3224,-130 3368,-130 3368,-78 3224,-78"/>
</g>
<g id="clust59" class="cluster">
<title>cluster_SharedModule</title>
<polygon fill="none" stroke="black" stroke-dasharray="1,5" points="2129,-138 2129,-206 2708,-206 2708,-138 2129,-138"/>
</g>
<g id="clust60" class="cluster">
<title>cluster_SharedModule_declarations</title>
<polygon fill="none" stroke="black" points="2426,-146 2426,-198 2700,-198 2700,-146 2426,-146"/>
</g>
<g id="clust64" class="cluster">
<title>cluster_SharedModule_exports</title>
<polygon fill="none" stroke="black" points="2137,-146 2137,-198 2418,-198 2418,-146 2137,-146"/>
</g>
<!-- AdminComponent -->
<g id="node1" class="node">
<title>AdminComponent</title>
<polygon fill="#ffffb3" stroke="black" points="144.22,-122 23.78,-122 23.78,-86 144.22,-86 144.22,-122"/>
<text text-anchor="middle" x="84" y="-99.8" font-family="Times,serif" font-size="14.00">AdminComponent</text>
</g>
<!-- AdminModule -->
<g id="node2" class="node">
<title>AdminModule</title>
<polygon fill="#8dd3c7" stroke="black" points="133.44,-190 130.44,-194 109.44,-194 106.44,-190 34.56,-190 34.56,-154 133.44,-154 133.44,-190"/>
<text text-anchor="middle" x="84" y="-167.8" font-family="Times,serif" font-size="14.00">AdminModule</text>
</g>
<!-- AdminComponent&#45;&gt;AdminModule -->
<g id="edge1" class="edge">
<title>AdminComponent&#45;&gt;AdminModule</title>
<path fill="none" stroke="black" d="M67.59,-122.22C67.59,-122.22 67.59,-143.73 67.59,-143.73"/>
<polygon fill="black" stroke="black" points="64.09,-143.73 67.59,-153.73 71.09,-143.73 64.09,-143.73"/>
</g>
<!-- AdminComponent&#45;&gt;AdminModule -->
<g id="edge2" class="edge">
<title>AdminComponent&#45;&gt;AdminModule</title>
<path fill="none" stroke="black" d="M100.41,-122.22C100.41,-122.22 100.41,-143.73 100.41,-143.73"/>
<polygon fill="black" stroke="black" points="96.91,-143.73 100.41,-153.73 103.91,-143.73 96.91,-143.73"/>
</g>
<!-- AcercaComponent -->
<g id="node3" class="node">
<title>AcercaComponent</title>
<polygon fill="#ffffb3" stroke="black" points="1836.46,-122 1715.54,-122 1715.54,-86 1836.46,-86 1836.46,-122"/>
<text text-anchor="middle" x="1776" y="-99.8" font-family="Times,serif" font-size="14.00">AcercaComponent</text>
</g>
<!-- AppModule -->
<g id="node14" class="node">
<title>AppModule</title>
<polygon fill="#8dd3c7" stroke="black" points="1348.66,-190 1345.66,-194 1324.66,-194 1321.66,-190 1265.34,-190 1265.34,-154 1348.66,-154 1348.66,-190"/>
<text text-anchor="middle" x="1307" y="-167.8" font-family="Times,serif" font-size="14.00">AppModule</text>
</g>
<!-- AcercaComponent&#45;&gt;AppModule -->
<g id="edge3" class="edge">
<title>AcercaComponent&#45;&gt;AppModule</title>
<path fill="none" stroke="black" d="M1776,-122.11C1776,-141.34 1776,-169 1776,-169 1776,-169 1359.03,-169 1359.03,-169"/>
<polygon fill="black" stroke="black" points="1359.03,-165.5 1349.03,-169 1359.03,-172.5 1359.03,-165.5"/>
</g>
<!-- AppComponent -->
<g id="node4" class="node">
<title>AppComponent</title>
<polygon fill="#ffffb3" stroke="black" points="1697.94,-122 1592.06,-122 1592.06,-86 1697.94,-86 1697.94,-122"/>
<text text-anchor="middle" x="1645" y="-99.8" font-family="Times,serif" font-size="14.00">AppComponent</text>
</g>
<!-- AppComponent&#45;&gt;AppModule -->
<g id="edge4" class="edge">
<title>AppComponent&#45;&gt;AppModule</title>
<path fill="none" stroke="black" d="M1627.43,-122.03C1627.43,-139.06 1627.43,-162 1627.43,-162 1627.43,-162 1358.89,-162 1358.89,-162"/>
<polygon fill="black" stroke="black" points="1358.89,-158.5 1348.89,-162 1358.89,-165.5 1358.89,-158.5"/>
</g>
<!-- AppComponent&#45;&gt;AppModule -->
<g id="edge17" class="edge">
<title>AppComponent&#45;&gt;AppModule</title>
<path fill="none" stroke="black" d="M1662.57,-122.3C1662.57,-140.27 1662.57,-165 1662.57,-165 1662.57,-165 1358.83,-165 1358.83,-165"/>
<polygon fill="black" stroke="black" points="1358.83,-161.5 1348.83,-165 1358.83,-168.5 1358.83,-161.5"/>
</g>
<!-- CartComponent -->
<g id="node5" class="node">
<title>CartComponent</title>
<polygon fill="#ffffb3" stroke="black" points="1574.94,-122 1469.06,-122 1469.06,-86 1574.94,-86 1574.94,-122"/>
<text text-anchor="middle" x="1522" y="-99.8" font-family="Times,serif" font-size="14.00">CartComponent</text>
</g>
<!-- CartComponent&#45;&gt;AppModule -->
<g id="edge5" class="edge">
<title>CartComponent&#45;&gt;AppModule</title>
<path fill="none" stroke="black" d="M1522,-122.28C1522,-137.95 1522,-158 1522,-158 1522,-158 1358.71,-158 1358.71,-158"/>
<polygon fill="black" stroke="black" points="1358.71,-154.5 1348.71,-158 1358.71,-161.5 1358.71,-154.5"/>
</g>
<!-- ContactoComponent -->
<g id="node6" class="node">
<title>ContactoComponent</title>
<polygon fill="#ffffb3" stroke="black" points="1450.88,-122 1319.12,-122 1319.12,-86 1450.88,-86 1450.88,-122"/>
<text text-anchor="middle" x="1385" y="-99.8" font-family="Times,serif" font-size="14.00">ContactoComponent</text>
</g>
<!-- ContactoComponent&#45;&gt;AppModule -->
<g id="edge6" class="edge">
<title>ContactoComponent&#45;&gt;AppModule</title>
<path fill="none" stroke="black" d="M1333.94,-122.22C1333.94,-122.22 1333.94,-143.73 1333.94,-143.73"/>
<polygon fill="black" stroke="black" points="1330.44,-143.73 1333.94,-153.73 1337.44,-143.73 1330.44,-143.73"/>
</g>
<!-- CreateUserComponent -->
<g id="node7" class="node">
<title>CreateUserComponent</title>
<polygon fill="#ffffb3" stroke="black" points="1301.29,-122 1156.71,-122 1156.71,-86 1301.29,-86 1301.29,-122"/>
<text text-anchor="middle" x="1229" y="-99.8" font-family="Times,serif" font-size="14.00">CreateUserComponent</text>
</g>
<!-- CreateUserComponent&#45;&gt;AppModule -->
<g id="edge7" class="edge">
<title>CreateUserComponent&#45;&gt;AppModule</title>
<path fill="none" stroke="black" d="M1283.16,-122.22C1283.16,-122.22 1283.16,-143.73 1283.16,-143.73"/>
<polygon fill="black" stroke="black" points="1279.66,-143.73 1283.16,-153.73 1286.66,-143.73 1279.66,-143.73"/>
</g>
<!-- HomeComponent -->
<g id="node8" class="node">
<title>HomeComponent</title>
<polygon fill="#ffffb3" stroke="black" points="1138.55,-122 1023.45,-122 1023.45,-86 1138.55,-86 1138.55,-122"/>
<text text-anchor="middle" x="1081" y="-99.8" font-family="Times,serif" font-size="14.00">HomeComponent</text>
</g>
<!-- HomeComponent&#45;&gt;AppModule -->
<g id="edge8" class="edge">
<title>HomeComponent&#45;&gt;AppModule</title>
<path fill="none" stroke="black" d="M1081,-122.28C1081,-137.95 1081,-158 1081,-158 1081,-158 1255.28,-158 1255.28,-158"/>
<polygon fill="black" stroke="black" points="1255.28,-161.5 1265.28,-158 1255.28,-154.5 1255.28,-161.5"/>
</g>
<!-- ListaEncargosComponent -->
<g id="node9" class="node">
<title>ListaEncargosComponent</title>
<polygon fill="#ffffb3" stroke="black" points="1005.91,-122 844.09,-122 844.09,-86 1005.91,-86 1005.91,-122"/>
<text text-anchor="middle" x="925" y="-99.8" font-family="Times,serif" font-size="14.00">ListaEncargosComponent</text>
</g>
<!-- ListaEncargosComponent&#45;&gt;AppModule -->
<g id="edge9" class="edge">
<title>ListaEncargosComponent&#45;&gt;AppModule</title>
<path fill="none" stroke="black" d="M898.1,-122.27C898.1,-140.56 898.1,-166 898.1,-166 898.1,-166 1255.16,-166 1255.16,-166"/>
<polygon fill="black" stroke="black" points="1255.16,-169.5 1265.16,-166 1255.16,-162.5 1255.16,-169.5"/>
</g>
<!-- ListaEncargosComponent&#45;&gt;AppModule -->
<g id="edge18" class="edge">
<title>ListaEncargosComponent&#45;&gt;AppModule</title>
<path fill="none" stroke="black" d="M951.9,-122.03C951.9,-139.06 951.9,-162 951.9,-162 951.9,-162 1255.22,-162 1255.22,-162"/>
<polygon fill="black" stroke="black" points="1255.22,-165.5 1265.22,-162 1255.22,-158.5 1255.22,-165.5"/>
</g>
<!-- ListaProductosComponent -->
<g id="node10" class="node">
<title>ListaProductosComponent</title>
<polygon fill="#ffffb3" stroke="black" points="826.82,-122 661.18,-122 661.18,-86 826.82,-86 826.82,-122"/>
<text text-anchor="middle" x="744" y="-99.8" font-family="Times,serif" font-size="14.00">ListaProductosComponent</text>
</g>
<!-- ListaProductosComponent&#45;&gt;AppModule -->
<g id="edge10" class="edge">
<title>ListaProductosComponent&#45;&gt;AppModule</title>
<path fill="none" stroke="black" d="M716.45,-122.03C716.45,-142.77 716.45,-174 716.45,-174 716.45,-174 1255,-174 1255,-174"/>
<polygon fill="black" stroke="black" points="1255,-177.5 1265,-174 1255,-170.5 1255,-177.5"/>
</g>
<!-- ListaProductosComponent&#45;&gt;AppModule -->
<g id="edge19" class="edge">
<title>ListaProductosComponent&#45;&gt;AppModule</title>
<path fill="none" stroke="black" d="M771.55,-122.03C771.55,-141.58 771.55,-170 771.55,-170 771.55,-170 1254.98,-170 1254.98,-170"/>
<polygon fill="black" stroke="black" points="1254.98,-173.5 1264.98,-170 1254.98,-166.5 1254.98,-173.5"/>
</g>
<!-- PerfilComponent -->
<g id="node11" class="node">
<title>PerfilComponent</title>
<polygon fill="#ffffb3" stroke="black" points="643.43,-122 530.57,-122 530.57,-86 643.43,-86 643.43,-122"/>
<text text-anchor="middle" x="587" y="-99.8" font-family="Times,serif" font-size="14.00">PerfilComponent</text>
</g>
<!-- PerfilComponent&#45;&gt;AppModule -->
<g id="edge11" class="edge">
<title>PerfilComponent&#45;&gt;AppModule</title>
<path fill="none" stroke="black" d="M587,-122.29C587,-144.21 587,-178 587,-178 587,-178 1255.18,-178 1255.18,-178"/>
<polygon fill="black" stroke="black" points="1255.18,-181.5 1265.18,-178 1255.18,-174.5 1255.18,-181.5"/>
</g>
<!-- ProductoDetalleComponent -->
<g id="node12" class="node">
<title>ProductoDetalleComponent</title>
<polygon fill="#ffffb3" stroke="black" points="513.3,-122 340.7,-122 340.7,-86 513.3,-86 513.3,-122"/>
<text text-anchor="middle" x="427" y="-99.8" font-family="Times,serif" font-size="14.00">ProductoDetalleComponent</text>
</g>
<!-- ProductoDetalleComponent&#45;&gt;AppModule -->
<g id="edge12" class="edge">
<title>ProductoDetalleComponent&#45;&gt;AppModule</title>
<path fill="none" stroke="black" d="M427,-122.09C427,-145.13 427,-182 427,-182 427,-182 1255.15,-182 1255.15,-182"/>
<polygon fill="black" stroke="black" points="1255.15,-185.5 1265.15,-182 1255.15,-178.5 1255.15,-185.5"/>
</g>
<!-- RecuperarComponent -->
<g id="node13" class="node">
<title>RecuperarComponent</title>
<polygon fill="#ffffb3" stroke="black" points="322.35,-122 183.65,-122 183.65,-86 322.35,-86 322.35,-122"/>
<text text-anchor="middle" x="253" y="-99.8" font-family="Times,serif" font-size="14.00">RecuperarComponent</text>
</g>
<!-- RecuperarComponent&#45;&gt;AppModule -->
<g id="edge13" class="edge">
<title>RecuperarComponent&#45;&gt;AppModule</title>
<path fill="none" stroke="black" d="M253,-122.2C253,-146.36 253,-186 253,-186 253,-186 1255.03,-186 1255.03,-186"/>
<polygon fill="black" stroke="black" points="1255.03,-189.5 1265.03,-186 1255.03,-182.5 1255.03,-189.5"/>
</g>
<!-- AppComponent  -->
<g id="node17" class="node">
<title>AppComponent </title>
<polygon fill="#80b1d3" stroke="black" points="1361.44,-258 1252.56,-258 1252.56,-222 1361.44,-222 1361.44,-258"/>
<text text-anchor="middle" x="1307" y="-235.8" font-family="Times,serif" font-size="14.00">AppComponent </text>
</g>
<!-- AppModule&#45;&gt;AppComponent  -->
<g id="edge16" class="edge">
<title>AppModule&#45;&gt;AppComponent </title>
<path fill="none" stroke="black" stroke-dasharray="1,5" d="M1320.94,-190.22C1320.94,-190.22 1320.94,-211.73 1320.94,-211.73"/>
<polygon fill="black" stroke="black" points="1317.44,-211.73 1320.94,-221.73 1324.44,-211.73 1317.44,-211.73"/>
</g>
<!-- AppModule&#45;&gt;AppComponent  -->
<g id="edge22" class="edge">
<title>AppModule&#45;&gt;AppComponent </title>
<path fill="none" stroke="black" stroke-dasharray="1,5" d="M1293.06,-190.22C1293.06,-190.22 1293.06,-211.73 1293.06,-211.73"/>
<polygon fill="black" stroke="black" points="1289.56,-211.73 1293.06,-221.73 1296.56,-211.73 1289.56,-211.73"/>
</g>
<!-- AppRoutingModule -->
<g id="node15" class="node">
<title>AppRoutingModule</title>
<polygon fill="#8dd3c7" stroke="black" points="1988.27,-122 1985.27,-126 1964.27,-126 1961.27,-122 1859.73,-122 1859.73,-86 1988.27,-86 1988.27,-122"/>
<text text-anchor="middle" x="1924" y="-99.8" font-family="Times,serif" font-size="14.00">AppRoutingModule</text>
</g>
<!-- AppRoutingModule&#45;&gt;AppModule -->
<g id="edge14" class="edge">
<title>AppRoutingModule&#45;&gt;AppModule</title>
<path fill="none" stroke="black" d="M1902.54,-122.22C1902.54,-142.37 1902.54,-172 1902.54,-172 1902.54,-172 1358.88,-172 1358.88,-172"/>
<polygon fill="black" stroke="black" points="1358.88,-168.5 1348.88,-172 1358.88,-175.5 1358.88,-168.5"/>
</g>
<!-- AppRoutingModule&#45;&gt;AppModule -->
<g id="edge20" class="edge">
<title>AppRoutingModule&#45;&gt;AppModule</title>
<path fill="none" stroke="black" d="M1945.46,-122.17C1945.46,-143.5 1945.46,-176 1945.46,-176 1945.46,-176 1358.89,-176 1358.89,-176"/>
<polygon fill="black" stroke="black" points="1358.89,-172.5 1348.89,-176 1358.89,-179.5 1358.89,-172.5"/>
</g>
<!-- SharedModule -->
<g id="node16" class="node">
<title>SharedModule</title>
<polygon fill="#8dd3c7" stroke="black" points="2105.42,-122 2102.42,-126 2081.42,-126 2078.42,-122 2006.58,-122 2006.58,-86 2105.42,-86 2105.42,-122"/>
<text text-anchor="middle" x="2056" y="-99.8" font-family="Times,serif" font-size="14.00">SharedModule</text>
</g>
<!-- SharedModule&#45;&gt;AppModule -->
<g id="edge15" class="edge">
<title>SharedModule&#45;&gt;AppModule</title>
<path fill="none" stroke="black" d="M2056,-122.32C2056,-145.66 2056,-183 2056,-183 2056,-183 1358.87,-183 1358.87,-183"/>
<polygon fill="black" stroke="black" points="1358.87,-179.5 1348.87,-183 1358.87,-186.5 1358.87,-179.5"/>
</g>
<!-- SharedModule&#45;&gt;AppModule -->
<g id="edge21" class="edge">
<title>SharedModule&#45;&gt;AppModule</title>
<path fill="none" stroke="black" d="M2031.39,-122.01C2031.39,-144.49 2031.39,-180 2031.39,-180 2031.39,-180 1358.81,-180 1358.81,-180"/>
<polygon fill="black" stroke="black" points="1358.81,-176.5 1348.81,-180 1358.81,-183.5 1358.81,-176.5"/>
</g>
<!-- FooterComponent  -->
<g id="node28" class="node">
<title>FooterComponent </title>
<polygon fill="#fb8072" stroke="black" points="2409.88,-190 2288.12,-190 2288.12,-154 2409.88,-154 2409.88,-190"/>
<text text-anchor="middle" x="2349" y="-167.8" font-family="Times,serif" font-size="14.00">FooterComponent </text>
</g>
<!-- SharedModule&#45;&gt;FooterComponent  -->
<g id="edge33" class="edge">
<title>SharedModule&#45;&gt;FooterComponent </title>
<path fill="none" stroke="black" stroke-dasharray="5,2" d="M2105.37,-113C2188.87,-113 2349,-113 2349,-113 2349,-113 2349,-143.98 2349,-143.98"/>
<polygon fill="black" stroke="black" points="2345.5,-143.98 2349,-153.98 2352.5,-143.98 2345.5,-143.98"/>
</g>
<!-- HeaderComponent  -->
<g id="node29" class="node">
<title>HeaderComponent </title>
<polygon fill="#fb8072" stroke="black" points="2270.74,-190 2145.26,-190 2145.26,-154 2270.74,-154 2270.74,-190"/>
<text text-anchor="middle" x="2208" y="-167.8" font-family="Times,serif" font-size="14.00">HeaderComponent </text>
</g>
<!-- SharedModule&#45;&gt;HeaderComponent  -->
<g id="edge34" class="edge">
<title>SharedModule&#45;&gt;HeaderComponent </title>
<path fill="none" stroke="black" stroke-dasharray="5,2" d="M2080.61,-122.01C2080.61,-146.42 2080.61,-187 2080.61,-187 2080.61,-187 2135.05,-187 2135.05,-187"/>
<polygon fill="black" stroke="black" points="2135.05,-190.5 2145.05,-187 2135.05,-183.5 2135.05,-190.5"/>
</g>
<!-- CatalogoComponent -->
<g id="node18" class="node">
<title>CatalogoComponent</title>
<polygon fill="#ffffb3" stroke="black" points="2863.88,-122 2732.12,-122 2732.12,-86 2863.88,-86 2863.88,-122"/>
<text text-anchor="middle" x="2798" y="-99.8" font-family="Times,serif" font-size="14.00">CatalogoComponent</text>
</g>
<!-- CatalogoModule -->
<g id="node19" class="node">
<title>CatalogoModule</title>
<polygon fill="#8dd3c7" stroke="black" points="2853.1,-190 2850.1,-194 2829.1,-194 2826.1,-190 2742.9,-190 2742.9,-154 2853.1,-154 2853.1,-190"/>
<text text-anchor="middle" x="2798" y="-167.8" font-family="Times,serif" font-size="14.00">CatalogoModule</text>
</g>
<!-- CatalogoComponent&#45;&gt;CatalogoModule -->
<g id="edge23" class="edge">
<title>CatalogoComponent&#45;&gt;CatalogoModule</title>
<path fill="none" stroke="black" d="M2779.65,-122.22C2779.65,-122.22 2779.65,-143.73 2779.65,-143.73"/>
<polygon fill="black" stroke="black" points="2776.15,-143.73 2779.65,-153.73 2783.15,-143.73 2776.15,-143.73"/>
</g>
<!-- CatalogoComponent&#45;&gt;CatalogoModule -->
<g id="edge24" class="edge">
<title>CatalogoComponent&#45;&gt;CatalogoModule</title>
<path fill="none" stroke="black" d="M2816.35,-122.22C2816.35,-122.22 2816.35,-143.73 2816.35,-143.73"/>
<polygon fill="black" stroke="black" points="2812.85,-143.73 2816.35,-153.73 2819.85,-143.73 2812.85,-143.73"/>
</g>
<!-- EncargosComponent -->
<g id="node20" class="node">
<title>EncargosComponent</title>
<polygon fill="#ffffb3" stroke="black" points="3037.92,-122 2904.08,-122 2904.08,-86 3037.92,-86 3037.92,-122"/>
<text text-anchor="middle" x="2971" y="-99.8" font-family="Times,serif" font-size="14.00">EncargosComponent</text>
</g>
<!-- EncargosModule -->
<g id="node21" class="node">
<title>EncargosModule</title>
<polygon fill="#8dd3c7" stroke="black" points="3026.64,-190 3023.64,-194 3002.64,-194 2999.64,-190 2915.36,-190 2915.36,-154 3026.64,-154 3026.64,-190"/>
<text text-anchor="middle" x="2971" y="-167.8" font-family="Times,serif" font-size="14.00">EncargosModule</text>
</g>
<!-- EncargosComponent&#45;&gt;EncargosModule -->
<g id="edge25" class="edge">
<title>EncargosComponent&#45;&gt;EncargosModule</title>
<path fill="none" stroke="black" d="M2952.39,-122.22C2952.39,-122.22 2952.39,-143.73 2952.39,-143.73"/>
<polygon fill="black" stroke="black" points="2948.89,-143.73 2952.39,-153.73 2955.89,-143.73 2948.89,-143.73"/>
</g>
<!-- EncargosComponent&#45;&gt;EncargosModule -->
<g id="edge26" class="edge">
<title>EncargosComponent&#45;&gt;EncargosModule</title>
<path fill="none" stroke="black" d="M2989.61,-122.22C2989.61,-122.22 2989.61,-143.73 2989.61,-143.73"/>
<polygon fill="black" stroke="black" points="2986.11,-143.73 2989.61,-153.73 2993.11,-143.73 2986.11,-143.73"/>
</g>
<!-- LoginComponent -->
<g id="node22" class="node">
<title>LoginComponent</title>
<polygon fill="#ffffb3" stroke="black" points="3192.28,-122 3077.72,-122 3077.72,-86 3192.28,-86 3192.28,-122"/>
<text text-anchor="middle" x="3135" y="-99.8" font-family="Times,serif" font-size="14.00">LoginComponent</text>
</g>
<!-- LoginModule -->
<g id="node23" class="node">
<title>LoginModule</title>
<polygon fill="#8dd3c7" stroke="black" points="3181.49,-190 3178.49,-194 3157.49,-194 3154.49,-190 3088.51,-190 3088.51,-154 3181.49,-154 3181.49,-190"/>
<text text-anchor="middle" x="3135" y="-167.8" font-family="Times,serif" font-size="14.00">LoginModule</text>
</g>
<!-- LoginComponent&#45;&gt;LoginModule -->
<g id="edge27" class="edge">
<title>LoginComponent&#45;&gt;LoginModule</title>
<path fill="none" stroke="black" d="M3150.5,-122.22C3150.5,-122.22 3150.5,-143.73 3150.5,-143.73"/>
<polygon fill="black" stroke="black" points="3147,-143.73 3150.5,-153.73 3154,-143.73 3147,-143.73"/>
</g>
<!-- LoginComponent&#45;&gt;LoginModule -->
<g id="edge28" class="edge">
<title>LoginComponent&#45;&gt;LoginModule</title>
<path fill="none" stroke="black" d="M3119.5,-122.22C3119.5,-122.22 3119.5,-143.73 3119.5,-143.73"/>
<polygon fill="black" stroke="black" points="3116,-143.73 3119.5,-153.73 3123,-143.73 3116,-143.73"/>
</g>
<!-- RegistroComponent -->
<g id="node24" class="node">
<title>RegistroComponent</title>
<polygon fill="#ffffb3" stroke="black" points="3360.27,-122 3231.73,-122 3231.73,-86 3360.27,-86 3360.27,-122"/>
<text text-anchor="middle" x="3296" y="-99.8" font-family="Times,serif" font-size="14.00">RegistroComponent</text>
</g>
<!-- RegistroModule -->
<g id="node25" class="node">
<title>RegistroModule</title>
<polygon fill="#8dd3c7" stroke="black" points="3349.49,-190 3346.49,-194 3325.49,-194 3322.49,-190 3242.51,-190 3242.51,-154 3349.49,-154 3349.49,-190"/>
<text text-anchor="middle" x="3296" y="-167.8" font-family="Times,serif" font-size="14.00">RegistroModule</text>
</g>
<!-- RegistroComponent&#45;&gt;RegistroModule -->
<g id="edge29" class="edge">
<title>RegistroComponent&#45;&gt;RegistroModule</title>
<path fill="none" stroke="black" d="M3313.83,-122.22C3313.83,-122.22 3313.83,-143.73 3313.83,-143.73"/>
<polygon fill="black" stroke="black" points="3310.33,-143.73 3313.83,-153.73 3317.33,-143.73 3310.33,-143.73"/>
</g>
<!-- RegistroComponent&#45;&gt;RegistroModule -->
<g id="edge30" class="edge">
<title>RegistroComponent&#45;&gt;RegistroModule</title>
<path fill="none" stroke="black" d="M3278.17,-122.22C3278.17,-122.22 3278.17,-143.73 3278.17,-143.73"/>
<polygon fill="black" stroke="black" points="3274.67,-143.73 3278.17,-153.73 3281.67,-143.73 3274.67,-143.73"/>
</g>
<!-- FooterComponent -->
<g id="node26" class="node">
<title>FooterComponent</title>
<polygon fill="#ffffb3" stroke="black" points="2691.88,-190 2574.12,-190 2574.12,-154 2691.88,-154 2691.88,-190"/>
<text text-anchor="middle" x="2633" y="-167.8" font-family="Times,serif" font-size="14.00">FooterComponent</text>
</g>
<!-- FooterComponent&#45;&gt;SharedModule -->
<g id="edge31" class="edge">
<title>FooterComponent&#45;&gt;SharedModule</title>
<path fill="none" stroke="black" d="M2633,-153.75C2633,-130.98 2633,-95 2633,-95 2633,-95 2115.44,-95 2115.44,-95"/>
<polygon fill="black" stroke="black" points="2115.44,-91.5 2105.44,-95 2115.44,-98.5 2115.44,-91.5"/>
</g>
<!-- HeaderComponent -->
<g id="node27" class="node">
<title>HeaderComponent</title>
<polygon fill="#ffffb3" stroke="black" points="2555.74,-190 2434.26,-190 2434.26,-154 2555.74,-154 2555.74,-190"/>
<text text-anchor="middle" x="2495" y="-167.8" font-family="Times,serif" font-size="14.00">HeaderComponent</text>
</g>
<!-- HeaderComponent&#45;&gt;SharedModule -->
<g id="edge32" class="edge">
<title>HeaderComponent&#45;&gt;SharedModule</title>
<path fill="none" stroke="black" d="M2495,-153.78C2495,-133.63 2495,-104 2495,-104 2495,-104 2115.51,-104 2115.51,-104"/>
<polygon fill="black" stroke="black" points="2115.51,-100.5 2105.51,-104 2115.51,-107.5 2115.51,-100.5"/>
</g>
</g>
</svg>
